<svg xmlns="http://www.w3.org/2000/svg" width="94" height="16" viewBox="0 0 94 16"><path fill="#263a6f" d="M14.417 5.088h2.401v10.733h-2.401zm18.104.928c-.336-.379-.782-.675-1.326-.88-.532-.2-1.187-.302-1.947-.302-.653 0-1.268.051-1.827.151-.574.102-.98.208-1.239.323l-.202.09.298 2.094.348-.143c.202-.083.521-.166.948-.247.43-.081.94-.122 1.518-.122.422 0 .765.059 1.017.177.249.116.44.266.581.456.143.193.244.419.301.669.06.272.09.55.09.826v.146c-.114-.022-.242-.047-.386-.073a7.072 7.072 0 0 0-2.877.071 4.613 4.613 0 0 0-1.458.585c-.43.272-.775.636-1.025 1.08-.252.446-.379.979-.379 1.587 0 .626.108 1.174.32 1.627.215.46.523.836.914 1.118.38.275.835.477 1.351.603a6.954 6.954 0 0 0 1.65.184c.407 0 .825-.017 1.243-.05.413-.033.797-.068 1.15-.108.358-.04.678-.083.962-.128l.9-.149V9.01c0-.594-.07-1.149-.206-1.648a3.362 3.362 0 0 0-.719-1.346zm-1.438 5.247v2.581c-.16.025-.345.044-.553.056a19.59 19.59 0 0 1-1.125.029c-.658 0-1.178-.114-1.546-.338-.326-.198-.484-.56-.484-1.107 0-.281.064-.506.19-.667.141-.178.32-.321.532-.425.225-.109.476-.182.749-.216.289-.037.569-.056.83-.056.399 0 .741.021 1.018.064.175.026.299.054.389.079z"/><path d="M55.951 6.988a4.244 4.244 0 0 0-1.469-1.052 4.65 4.65 0 0 0-1.862-.37c-.67 0-1.296.124-1.863.37a4.217 4.217 0 0 0-1.469 1.052 4.903 4.903 0 0 0-.96 1.646 6.35 6.35 0 0 0-.344 2.133c0 .788.116 1.509.344 2.143.227.632.55 1.182.96 1.636.409.452.903.806 1.469 1.052.567.245 1.194.37 1.863.37.668 0 1.294-.125 1.862-.37a4.235 4.235 0 0 0 1.469-1.052 4.88 4.88 0 0 0 .959-1.636c.228-.634.344-1.355.344-2.143a6.35 6.35 0 0 0-.344-2.133 4.891 4.891 0 0 0-.959-1.646zm-1.133 6.579c-.537.7-1.277 1.054-2.198 1.054-.923 0-1.662-.355-2.199-1.055-.529-.689-.797-1.631-.797-2.799s.268-2.11.797-2.8c.537-.699 1.277-1.054 2.199-1.054.921 0 1.661.355 2.198 1.054.529.69.797 1.632.797 2.8s-.269 2.11-.797 2.8zm8.504.995c-.211.014-.415.02-.613.02-.962 0-1.66-.287-2.073-.853-.405-.553-.61-1.471-.61-2.729V5.819h-1.561v5.572c0 .676.072 1.299.211 1.853.138.546.366 1.025.679 1.426.31.396.727.71 1.239.927.516.22 1.162.331 1.921.331.886 0 1.677-.058 2.35-.174a25.485 25.485 0 0 0 1.543-.306V5.819h-1.561v8.527l-.079.032a1.55 1.55 0 0 1-.352.076 15.138 15.138 0 0 1-1.094.108zm10.242-8.755c-.161-.032-.34-.064-.533-.096a8.549 8.549 0 0 0-.587-.077 5.53 5.53 0 0 0-.524-.029 10.2 10.2 0 0 0-2.12.203c-.588.126-1.092.262-1.499.404v9.502h1.561v-8.5l.096-.024c.105-.027.323-.075.657-.147.34-.073.687-.11 1.032-.11.526 0 .966.037 1.305.11.249.054.443.102.589.145l.262-1.326a3.6 3.6 0 0 0-.239-.055zm6.639 8.655c-.397.092-.846.14-1.337.14-.612 0-1.141-.092-1.571-.273a2.744 2.744 0 0 1-1.073-.788 3.242 3.242 0 0 1-.61-1.218 5.874 5.874 0 0 1-.19-1.536c0-1.248.282-2.214.84-2.873.563-.664 1.38-1.001 2.429-1.001.411 0 .804.04 1.169.119.306.068.588.154.835.26l.342-1.288a6.146 6.146 0 0 0-1.177-.322 7.914 7.914 0 0 0-1.345-.115c-.72 0-1.382.13-1.968.388a4.228 4.228 0 0 0-1.488 1.08 4.961 4.961 0 0 0-.942 1.646 6.37 6.37 0 0 0-.334 2.105c0 .764.104 1.47.306 2.098.201.624.511 1.17.919 1.623a4.25 4.25 0 0 0 1.517 1.061c.789.332 1.763.465 2.902.332.273-.032.536-.071.782-.116.244-.045.462-.096.65-.153.141-.042.257-.086.346-.131l-.213-1.275a5.608 5.608 0 0 1-.789.237zm5.67-8.896c-.567 0-1.129.108-1.671.322a4.117 4.117 0 0 0-1.439.966c-.415.429-.754.976-1.007 1.627-.253.652-.382 1.427-.382 2.305 0 .751.101 1.451.297 2.079a4.4 4.4 0 0 0 .901 1.623c.402.451.921.811 1.544 1.069.626.259 1.381.391 2.245.391.688 0 1.312-.065 1.854-.192.475-.112.828-.219 1.049-.32l-.212-1.27a6.697 6.697 0 0 1-.855.264c-.443.113-.996.17-1.642.17-1.162 0-2.032-.288-2.588-.858-.553-.565-.873-1.399-.954-2.48l-.01-.136h6.969c.005-.068.008-.139.008-.215v-.301c0-1.704-.357-2.985-1.062-3.81-.7-.819-1.724-1.234-3.045-1.234zm2.467 4.352h-5.302l.016-.142c.04-.361.125-.719.251-1.063.126-.35.308-.665.539-.937a2.74 2.74 0 0 1 .849-.666 2.527 2.527 0 0 1 1.16-.257c.779 0 1.401.282 1.846.838.439.548.656 1.255.643 2.101l-.002.126z" fill="#f68522"/><path d="M24.038 13.569l-.306.116c-.297.11-.706.166-1.215.166a2.34 2.34 0 0 1-.727-.102.96.96 0 0 1-.452-.308c-.126-.153-.224-.376-.292-.662-.072-.308-.109-.709-.109-1.192V7.196h3.845V5.088h-3.845V2.843l-2.401.398v8.365c0 .696.058 1.317.173 1.847.118.554.331 1.03.63 1.416a2.79 2.79 0 0 0 1.208.883c.481.188 1.092.283 1.814.283.611 0 1.165-.073 1.646-.217.439-.131.747-.241.95-.335a3.943 3.943 0 0 1-.601-.921 4.212 4.212 0 0 1-.318-.993zM12.063 1.87l-.127.021c-.314.954-.461 1.719-.802 2.714a222.1 222.1 0 0 1-1.035 2.944c-.348.968-.693 1.898-1.035 2.79a82.577 82.577 0 0 1-.984 2.463 53.885 53.885 0 0 1-1.004-2.473c-.342-.9-.683-1.83-1.024-2.791-.342-.96-.684-1.938-1.025-2.933-.285-.83-1.061-2.925-1.5-4.15L.5-.047a306.04 306.04 0 0 0 3.328 8.965 126.59 126.59 0 0 0 2.956 6.929h2.472a120.96 120.96 0 0 0 2.954-6.929c.83-2.122 1.618-4.458 2.364-6.631l-2.511-.417zM34.732.555v15.267h2.4V.157z" fill="#263a6f"/><path d="M91.433 5.57v.212h-.549v1.533h-.244V5.782h-.548V5.57h1.341zm1.04 1.503a10.186 10.186 0 0 0-.157-.355 10.153 10.153 0 0 0-.102-.223l-.102-.216a4.472 4.472 0 0 0-.157-.306c-.018.198-.034.413-.045.643-.01.231-.02.464-.028.699h-.239l.023-.457a20.336 20.336 0 0 1 .064-.887c.013-.141.026-.274.041-.4h.214c.046.074.094.161.146.262a10.389 10.389 0 0 1 .307.646l.133.301.133-.301a13.405 13.405 0 0 1 .307-.646c.052-.1.101-.188.146-.262h.214c.057.562.1 1.144.128 1.744h-.239a51.492 51.492 0 0 0-.03-.699 14.817 14.817 0 0 0-.046-.643 5.336 5.336 0 0 0-.156.306l-.102.216c-.036.076-.07.151-.102.223l-.089.201c-.027.062-.05.113-.066.154h-.196zm-45.65 3.63a3.408 3.408 0 0 0-.857-1.116 5.546 5.546 0 0 0-1.247-.786 39.298 39.298 0 0 0-1.492-.655 41.54 41.54 0 0 1-1.206-.517 4.99 4.99 0 0 1-.945-.542 2.128 2.128 0 0 1-.608-.689c-.142-.261-.215-.589-.215-.975 0-.375.069-.697.206-.959.137-.262.327-.483.567-.656.24-.175.532-.303.866-.382.342-.08.723-.121 1.132-.121a6.08 6.08 0 0 1 1.682.225c.514.148.957.349 1.317.597l.128.088.56-1.331-.084-.059a3.525 3.525 0 0 0-.648-.339 7.603 7.603 0 0 0-.839-.283 8.29 8.29 0 0 0-.985-.205 7.39 7.39 0 0 0-1.074-.078c-1.366 0-2.451.306-3.225.909-.783.611-1.181 1.516-1.181 2.69 0 .515.084.971.25 1.355.166.386.412.732.73 1.031.314.294.698.562 1.14.794.436.23.938.457 1.488.673.435.179.851.347 1.249.506.385.154.731.342 1.028.56a2.5 2.5 0 0 1 .704.787c.174.306.262.696.262 1.159 0 .808-.264 1.374-.807 1.732-.552.362-1.342.546-2.349.546-.439 0-.845-.032-1.207-.094a7.13 7.13 0 0 1-.98-.235 6.489 6.489 0 0 1-1.26-.554l-.13-.078-.512 1.373.09.054c.132.079.317.172.551.276.235.105.516.204.861.303.336.097.723.179 1.148.243a9.5 9.5 0 0 0 1.42.098c1.453 0 2.624-.312 3.48-.926.869-.624 1.31-1.569 1.31-2.809.002-.63-.106-1.172-.318-1.61z" fill="#f68522"/></svg>